<?xml version="1.0" standalone="no"?>
<!DOCTYPE svg PUBLIC "-//W3C//DTD SVG 20010904//EN"
 "http://www.w3.org/TR/2001/REC-SVG-20010904/DTD/svg10.dtd">
<svg version="1.0" xmlns="http://www.w3.org/2000/svg"
 width="512.000000pt" height="512.000000pt" viewBox="0 0 512.000000 512.000000"
 preserveAspectRatio="xMidYMid meet">

<g transform="translate(0.000000,512.000000) scale(0.100000,-0.100000)"
fill="#000000" stroke="none">
<path d="M3819 4570 c-292 -72 -537 -310 -669 -650 -11 -30 -24 -87 -27 -127
l-6 -71 -45 -12 c-24 -6 -46 -10 -47 -8 -2 2 1 24 7 50 13 54 6 78 -20 78 -24
0 -38 -16 -47 -53 -9 -32 -10 -33 -42 -7 -61 48 -90 7 -47 -66 26 -45 27 -48
10 -58 -75 -44 -109 -73 -135 -113 -37 -55 -40 -106 -11 -162 19 -38 105 -111
130 -111 8 0 10 -9 5 -27 -19 -76 -17 -170 5 -249 18 -61 22 -102 21 -180 -2
-111 -1 -114 81 -199 38 -40 88 -158 91 -215 2 -27 4 -27 -83 -9 -34 7 -95 9
-160 5 -93 -5 -110 -4 -145 14 -49 25 -90 25 -184 0 -71 -19 -80 -19 -235 -4
-186 17 -226 23 -226 30 0 3 27 36 61 72 35 39 74 96 94 137 78 165 135 390
135 537 0 50 4 68 13 68 32 0 139 64 187 112 57 56 100 135 100 183 0 44 -32
106 -73 142 -39 34 -105 57 -232 79 -44 8 -90 17 -101 19 -16 4 -24 15 -29 42
-18 98 -131 321 -211 416 -28 33 -25 43 15 52 41 9 68 41 54 63 -11 18 -37 20
-89 9 l-32 -6 5 38 c4 32 2 41 -15 50 -24 13 -52 -8 -52 -37 -1 -41 -15 -41
-83 3 -82 53 -207 106 -305 130 -198 48 -474 -26 -685 -184 -133 -99 -224
-224 -299 -409 -65 -161 -89 -262 -93 -391 l-3 -115 -50 -22 -51 -22 -3 26
c-2 22 -8 27 -32 27 -24 0 -31 -6 -40 -31 -9 -26 -15 -30 -31 -23 -55 22 -83
-6 -45 -46 l22 -23 -54 -35 c-83 -54 -118 -102 -118 -162 0 -37 48 -82 105
-98 48 -14 50 -16 47 -47 -7 -84 103 -628 145 -717 38 -82 63 -94 205 -104 66
-4 122 -10 125 -13 3 -3 9 -25 14 -48 7 -38 5 -45 -14 -57 -39 -26 -124 -119
-141 -155 -9 -19 -25 -37 -35 -41 -10 -3 -37 -24 -59 -47 -55 -56 -94 -153
-96 -238 -1 -47 -7 -75 -22 -101 -56 -94 -71 -214 -36 -291 50 -113 188 -211
289 -207 28 2 58 -2 65 -8 29 -23 123 -65 162 -71 l41 -7 6 -120 c6 -125 20
-176 57 -208 57 -52 243 12 254 86 4 25 -6 115 -17 165 l-7 34 434 -6 c238 -4
549 -3 690 1 255 8 257 8 283 33 l27 25 -5 200 c-2 110 0 237 6 283 l10 83 31
-7 c95 -21 235 7 339 70 31 19 57 32 57 29 0 -2 -23 -66 -51 -141 -72 -195
-99 -302 -100 -397 0 -94 9 -123 50 -157 59 -50 182 -64 711 -79 496 -13 898
-2 1025 31 138 35 207 76 241 142 22 43 15 290 -10 360 -14 40 -15 55 -5 94
17 65 -3 168 -43 229 -16 25 -34 45 -39 45 -5 0 -9 10 -9 23 0 12 -4 28 -9 36
-6 10 -5 22 5 35 23 34 17 71 -16 99 -23 19 -30 34 -30 60 0 76 -47 156 -120
206 -25 17 -56 31 -68 31 -14 0 -27 9 -34 25 -11 24 -8 28 24 55 42 35 73 106
65 148 -5 25 -1 33 33 58 22 16 53 48 71 72 33 46 153 290 164 334 6 24 13 28
74 38 92 15 163 57 198 117 23 40 28 59 28 123 0 141 -67 238 -241 346 l-76
47 6 45 c3 25 6 81 6 126 0 103 7 114 50 92 58 -29 88 -18 76 29 -4 15 -18 28
-41 36 -19 7 -35 15 -35 19 0 3 16 15 35 28 37 23 45 51 21 71 -11 9 -20 10
-36 1 -20 -11 -20 -9 5 39 29 58 31 74 11 90 -25 21 -51 -4 -75 -69 -12 -33
-25 -60 -29 -60 -4 0 -15 28 -25 63 -28 96 -101 238 -157 308 -88 110 -181
173 -334 224 -67 23 -90 25 -228 24 -114 0 -173 -5 -229 -19z m257 -89 l-28
-29 -49 20 c-40 17 -52 18 -64 8 -23 -19 -18 -39 15 -58 16 -9 30 -20 30 -24
0 -4 -18 -28 -40 -53 -22 -25 -43 -57 -46 -70 -5 -20 -13 -24 -47 -27 -39 -3
-42 -5 -42 -33 0 -27 3 -30 37 -33 32 -3 38 -7 44 -35 4 -18 14 -47 23 -65 16
-34 15 -34 -18 -61 -60 -49 -21 -92 50 -56 29 16 33 16 41 1 12 -22 87 -72
120 -80 26 -6 28 -10 25 -54 -2 -46 -1 -47 28 -47 26 0 32 5 43 40 7 22 16 43
20 46 4 4 42 9 85 12 l77 5 0 -28 c0 -15 9 -38 19 -51 16 -20 23 -22 38 -13
10 6 19 22 21 35 9 81 11 86 51 97 51 16 48 17 61 -22 14 -42 32 -58 55 -50
15 6 17 16 12 64 -6 54 -5 58 20 69 14 6 27 10 30 8 25 -26 46 -327 27 -401
-7 -31 -5 -31 -52 -7 -165 84 -571 172 -862 187 -134 6 -436 -8 -550 -27 -39
-7 -73 -9 -76 -6 -16 15 90 245 167 362 175 269 396 400 683 404 l80 1 -28
-29z m249 -34 c59 -24 96 -47 142 -91 65 -61 139 -162 167 -231 16 -37 16 -40
0 -52 -25 -18 -42 -16 -49 7 -4 13 -15 20 -31 20 -21 0 -24 -4 -24 -39 0 -34
-4 -40 -29 -49 -27 -10 -30 -8 -40 19 -17 49 -71 33 -71 -22 0 -32 -12 -37
-92 -46 l-59 -6 7 27 c7 31 -9 56 -38 56 -14 0 -24 -12 -35 -40 -9 -22 -20
-40 -24 -40 -16 0 -65 22 -81 37 -16 14 -15 17 13 40 34 29 39 68 10 78 -11 3
-36 -1 -56 -10 -21 -8 -39 -15 -40 -15 -3 0 -35 78 -35 85 0 3 13 5 30 5 34 0
53 25 39 52 -5 10 -19 18 -29 18 -28 0 -25 10 16 63 l37 47 33 -25 c18 -14 44
-25 58 -25 38 0 35 44 -4 78 l-30 26 38 39 c44 45 53 45 177 -6z m-2887 7
c160 -32 346 -135 448 -247 83 -91 180 -264 212 -379 l10 -36 -142 -1 c-402
-1 -976 -118 -1390 -283 -54 -21 -100 -37 -102 -35 -5 4 12 130 25 187 7 33
10 35 42 32 71 -6 78 -10 81 -49 4 -46 32 -67 54 -39 8 11 14 32 14 48 0 22 5
29 28 33 30 6 175 41 209 51 16 4 23 1 28 -15 9 -30 42 -46 61 -30 12 9 14 24
10 53 -6 40 -5 42 43 74 27 18 61 51 76 72 l27 39 33 -16 c28 -13 37 -14 50
-3 32 27 16 59 -40 77 -26 8 -31 16 -37 58 -4 27 -22 80 -41 117 l-34 69 26
12 c36 17 35 51 -1 55 -15 2 -36 -2 -48 -8 -17 -9 -28 -6 -65 21 -25 18 -45
35 -45 39 0 9 120 63 188 85 112 36 176 40 280 19z m-498 -186 l40 -31 -36
-31 c-29 -25 -35 -37 -30 -53 11 -35 36 -36 82 -4 l42 30 31 -63 c17 -35 31
-68 31 -74 0 -6 -18 -10 -42 -9 -41 2 -43 1 -46 -30 -3 -29 0 -33 38 -44 39
-12 40 -13 23 -32 -10 -11 -36 -33 -57 -49 l-39 -28 -24 36 c-43 62 -103 28
-70 -40 l16 -35 -80 -26 c-103 -32 -107 -32 -111 8 -3 28 -6 32 -33 32 -25 0
-32 -5 -41 -35 -11 -33 -15 -35 -58 -38 -25 -2 -46 -1 -46 1 0 2 13 41 29 88
33 98 79 192 131 269 44 64 173 190 196 190 8 0 33 -14 54 -32z m1255 -579
c121 -14 254 -45 292 -69 18 -10 40 -31 49 -45 15 -22 15 -32 5 -66 -17 -55
-78 -119 -150 -158 -32 -17 -63 -31 -69 -31 -5 0 -12 14 -16 31 -9 48 -58 86
-147 114 -187 59 -447 59 -858 0 -217 -31 -278 -44 -429 -90 -96 -30 -192 -66
-214 -80 -48 -32 -80 -81 -75 -117 3 -24 -1 -29 -29 -38 -38 -13 -84 -62 -84
-91 0 -14 -7 -19 -30 -19 -21 0 -40 11 -69 40 -43 44 -76 51 -124 25 -23 -11
-38 -12 -83 -3 -106 21 -94 66 40 153 236 152 554 268 1004 365 400 87 709
111 987 79z m1906 -32 c321 -57 502 -120 723 -250 75 -44 157 -120 181 -167
26 -49 30 -115 11 -164 -14 -37 -26 -49 -69 -70 -77 -39 -90 -36 -105 26 -25
107 -95 182 -270 287 -135 81 -358 152 -541 172 -53 5 -139 17 -191 24 -121
19 -446 19 -569 1 -121 -18 -200 -56 -287 -139 l-69 -65 -42 39 c-23 22 -47
48 -53 60 -39 73 86 178 272 229 137 37 283 49 583 46 249 -3 296 -6 426 -29z
m-191 -244 c263 -53 287 -72 325 -263 21 -102 24 -109 90 -185 69 -79 77 -97
76 -164 -1 -120 -106 -263 -254 -345 -92 -51 -156 -66 -302 -73 -111 -4 -142
-2 -215 16 -198 49 -337 151 -416 306 -55 107 -69 163 -69 270 1 160 29 211
149 268 79 38 152 98 187 153 12 21 32 37 50 42 55 14 250 1 379 -25z m-1825
-12 c96 -26 126 -46 143 -97 24 -70 18 -235 -12 -352 -71 -278 -170 -433 -326
-512 -136 -68 -333 -104 -488 -89 -137 14 -295 73 -326 122 -9 15 -16 72 -20
183 -7 149 -44 386 -70 447 -6 12 -4 17 6 17 8 0 28 15 45 33 38 40 133 185
133 203 0 8 3 14 7 14 4 0 93 11 198 25 104 13 206 26 225 29 19 2 118 3 220
1 151 -2 200 -6 265 -24z m-1599 -481 c3 -14 10 -41 15 -60 14 -49 23 -257 15
-313 -8 -50 -27 -62 -46 -27 -20 37 -59 310 -60 417 0 7 14 11 35 10 29 -2 37
-7 41 -27z m319 -112 c13 -106 11 -234 -4 -252 -24 -29 -33 -3 -42 122 -4 66
-11 131 -14 145 -6 21 -3 26 17 30 12 2 26 5 30 6 4 0 9 -23 13 -51z m3442
-421 c-13 -40 -22 -44 -50 -23 -16 12 -14 15 20 38 21 14 39 25 40 24 1 -1 -4
-18 -10 -39z m-829 4 c10 -6 7 -12 -12 -25 -25 -16 -26 -16 -26 2 0 30 14 39
38 23z m-2328 -50 c-1 -19 -173 -148 -178 -132 -5 16 18 44 86 105 61 54 93
64 92 27z m2623 -40 c69 -9 254 2 315 18 17 5 32 7 32 5 0 -2 -18 -24 -41 -49
-49 -53 -112 -79 -231 -96 -100 -14 -151 -3 -204 43 -32 29 -74 94 -74 117 0
5 30 1 68 -10 37 -11 97 -24 135 -28z m-1889 -31 c-30 -56 -103 -111 -172
-131 -84 -24 -249 28 -339 106 l-38 33 50 -9 c126 -25 372 -5 467 36 57 24 62
19 32 -35z m1188 25 c9 -3 28 -24 42 -45 l25 -39 -44 -25 c-24 -14 -89 -71
-144 -125 l-101 -100 0 67 c-1 63 -12 175 -26 251 l-7 34 119 -5 c66 -3 127
-9 136 -13z m-145 -429 c11 -34 4 -46 -27 -46 -15 0 -22 38 -10 60 15 29 25
25 37 -14z m633 0 c0 -34 0 -34 -40 -29 -32 5 -40 3 -40 -10 0 -27 44 -48 137
-64 155 -27 324 -3 306 43 -5 14 -20 16 -100 12 l-93 -4 0 43 0 42 133 -4
c129 -4 184 -14 199 -38 17 -27 7 -44 -31 -56 -43 -12 -81 -52 -81 -83 0 -28
-78 -58 -150 -58 -42 0 -88 10 -162 37 -77 27 -119 37 -166 37 l-63 0 6 30
c23 113 41 136 107 136 37 0 38 -1 38 -34z m1154 -95 c-17 -28 -17 -31 -1 -49
23 -25 22 -31 -8 -42 -19 -7 -32 -6 -50 6 l-23 15 44 45 c24 25 44 51 44 57 0
5 3 8 6 4 3 -3 -2 -19 -12 -36z m-1880 -6 c14 -14 34 -25 44 -25 14 0 22 -9
26 -34 4 -19 18 -45 33 -60 31 -32 25 -42 -49 -79 -91 -45 -204 -67 -265 -51
-18 5 -22 16 -28 77 -4 40 -10 88 -15 108 l-7 36 78 6 c66 4 113 18 156 46 1
0 13 -10 27 -24z m199 -47 c-9 -10 -27 -18 -40 -18 -19 0 -23 5 -23 28 0 40 7
43 45 24 31 -16 32 -18 18 -34z m1116 13 c36 -25 36 -37 0 -55 -27 -14 -34
-14 -60 -1 -15 8 -34 15 -42 15 -8 0 -21 7 -28 16 -11 14 -10 19 9 34 27 22
83 18 121 -9z m399 -68 c53 -25 119 -95 148 -156 48 -105 25 -242 -49 -288
-37 -22 -134 -55 -142 -47 -3 3 6 29 19 59 50 107 44 228 -15 309 -16 22 -56
60 -90 85 l-60 44 33 10 c42 13 109 6 156 -16z m-3895 -77 c-114 -106 -165
-233 -145 -362 6 -39 20 -92 32 -119 11 -26 19 -50 16 -52 -11 -12 -110 44
-144 81 -71 77 -78 154 -25 261 43 89 166 193 271 231 57 20 57 18 -5 -40z
m4131 -16 c21 -46 26 -72 24 -112 l-3 -53 -13 54 c-7 30 -24 76 -37 103 -23
46 -25 68 -6 68 5 0 20 -27 35 -60z m-468 26 c115 -54 172 -138 161 -240 -11
-105 -65 -191 -142 -227 -69 -32 -166 -19 -212 27 -27 27 -27 50 -2 111 10 25
10 41 -1 86 -12 54 -12 57 15 102 22 38 26 56 22 88 -3 23 -1 49 4 59 14 27
91 24 155 -6z m-3358 -23 c32 -24 33 -26 30 -96 -3 -70 -2 -72 26 -85 27 -14
28 -16 21 -66 -3 -28 -6 -64 -6 -81 1 -16 2 -70 4 -120 1 -49 -1 -98 -6 -107
-9 -22 -96 -48 -157 -48 -114 0 -220 75 -255 181 -22 63 -25 176 -8 234 17 55
99 155 152 184 84 46 141 47 199 4z m163 -23 c30 -17 61 -88 61 -141 0 -50
-21 -98 -53 -117 -17 -11 -18 -9 -13 32 5 36 2 53 -17 88 -19 33 -23 55 -21
96 3 53 9 60 43 42z m2920 -407 c7 -16 15 -31 17 -35 2 -4 -13 -10 -33 -14
-63 -11 -90 43 -33 66 33 13 33 13 49 -17z"/>
<path d="M3404 3211 c-50 -23 -74 -55 -74 -96 0 -29 15 -55 31 -55 4 0 18 18
30 40 39 70 109 63 109 -11 0 -53 49 -64 72 -15 9 20 7 35 -7 71 -28 75 -89
100 -161 66z"/>
<path d="M3993 3139 c-41 -26 -70 -97 -54 -128 17 -32 34 -26 69 24 35 50 52
55 83 24 16 -16 20 -28 15 -51 -7 -35 7 -58 35 -58 25 0 39 30 39 83 0 98
-106 158 -187 106z"/>
<path d="M3665 3097 c-61 -61 -55 -137 14 -184 43 -29 109 -31 142 -4 34 27
12 51 -47 51 -31 0 -50 6 -64 20 -26 26 -25 36 5 65 19 20 34 25 75 25 44 0
50 3 50 20 0 25 -35 40 -97 40 -38 0 -50 -5 -78 -33z"/>
<path d="M3376 2904 c-9 -24 -7 -77 5 -136 41 -194 233 -332 414 -299 131 24
173 63 239 217 48 112 45 119 -42 108 -37 -5 -112 -9 -167 -8 -113 1 -187 22
-336 93 -94 46 -104 48 -113 25z m156 -114 c121 -58 231 -83 337 -78 47 3 94
9 104 13 17 7 17 6 1 -28 -22 -45 -53 -57 -154 -57 -109 0 -172 14 -273 62
-70 33 -89 47 -93 67 -3 14 -8 34 -11 44 -2 9 -2 17 0 17 3 0 43 -18 89 -40z
m114 -195 c33 -8 100 -19 149 -23 83 -7 88 -9 66 -21 -35 -19 -141 -26 -187
-11 -46 14 -127 66 -142 91 -11 17 -9 17 21 -1 18 -11 59 -26 93 -35z"/>
<path d="M1832 3235 c-27 -23 -52 -85 -52 -129 0 -18 29 -48 42 -44 6 2 20 28
33 58 31 74 58 79 84 17 20 -47 45 -64 67 -46 31 25 3 119 -45 156 -29 22 -96
16 -129 -12z"/>
<path d="M1218 3154 c-51 -27 -76 -116 -44 -159 20 -28 42 -12 55 39 19 76 67
85 95 17 17 -43 38 -56 67 -40 16 8 19 16 13 42 -3 18 -13 44 -20 59 -27 53
-109 74 -166 42z"/>
<path d="M1575 3133 c-29 -7 -65 -43 -65 -66 0 -17 5 -19 53 -13 47 6 55 4 73
-16 30 -33 35 -54 16 -71 -30 -27 -73 -39 -104 -28 -37 13 -58 5 -58 -24 0
-83 188 -68 241 19 36 59 -7 160 -82 190 -22 9 -43 15 -47 15 -4 -1 -16 -3
-27 -6z"/>
<path d="M1840 2864 c-190 -89 -333 -105 -594 -68 l-49 7 6 -54 c3 -30 14 -74
25 -99 96 -221 429 -290 598 -124 46 44 56 61 78 135 40 132 51 196 36 214
-17 21 -36 19 -100 -11z m25 -108 c-8 -42 -35 -64 -115 -93 -172 -64 -357 -58
-431 13 -42 40 -38 55 9 41 20 -6 87 -11 147 -11 126 0 238 22 330 64 33 15
61 26 63 25 2 -2 0 -19 -3 -39z"/>
</g>
</svg>
